ffmpeg started on 2020-01-08 at 00:57:22
Report written to "ffmpeg-20200108-005722.log"
Command line:
/usr/bin/ffmpeg -f concat -safe 0 -report -i list.txt -y -c copy ./readyToUpload/mergedAudio.m4a
ffmpeg version 3.4.6-0ubuntu0.18.04.1 Copyright (c) 2000-2019 the FFmpeg developers
  built with gcc 7 (Ubuntu 7.3.0-16ubuntu3)
  configuration: --prefix=/usr --extra-version=0ubuntu0.18.04.1 --toolchain=hardened --libdir=/usr/lib/x86_64-linux-gnu --incdir=/usr/include/x86_64-linux-gnu --enable-gpl --disable-stripping --enable-avresample --enable-avisynth --enable-gnutls --enable-ladspa --enable-libass --enable-libbluray --enable-libbs2b --enable-libcaca --enable-libcdio --enable-libflite --enable-libfontconfig --enable-libfreetype --enable-libfribidi --enable-libgme --enable-libgsm --enable-libmp3lame --enable-libmysofa --enable-libopenjpeg --enable-libopenmpt --enable-libopus --enable-libpulse --enable-librubberband --enable-librsvg --enable-libshine --enable-libsnappy --enable-libsoxr --enable-libspeex --enable-libssh --enable-libtheora --enable-libtwolame --enable-libvorbis --enable-libvpx --enable-libwavpack --enable-libwebp --enable-libx265 --enable-libxml2 --enable-libxvid --enable-libzmq --enable-libzvbi --enable-omx --enable-openal --enable-opengl --enable-sdl2 --enable-libdc1394 --enable-libdrm --enable-libiec61883 --enable  libavutil      55. 78.100 / 55. 78.100
  libavcodec     57.107.100 / 57.107.100
  libavformat    57. 83.100 / 57. 83.100
  libavdevice    57. 10.100 / 57. 10.100
  libavfilter     6.107.100 /  6.107.100
  libavresample   3.  7.  0 /  3.  7.  0
  libswscale      4.  8.100 /  4.  8.100
  libswresample   2.  9.100 /  2.  9.100
  libpostproc    54.  7.100 / 54.  7.100
Splitting the commandline.
Reading option '-f' ... matched as option 'f' (force format) with argument 'concat'.
Reading option '-safe' ... matched as AVOption 'safe' with argument '0'.
Reading option '-report' ... matched as option 'report' (generate a report) with argument '1'.
Reading option '-i' ... matched as input url with argument 'list.txt'.
Reading option '-y' ... matched as option 'y' (overwrite output files) with argument '1'.
Reading option '-c' ... matched as option 'c' (codec name) with argument 'copy'.
Reading option './readyToUpload/mergedAudio.m4a' ... matched as output url.
Finished splitting the commandline.
Parsing a group of options: global .
Applying option report (generate a report) with argument 1.
Applying option y (overwrite output files) with argument 1.
Successfully parsed a group of options.
Parsing a group of options: input url list.txt.
Applying option f (force format) with argument concat.
Successfully parsed a group of options.
Opening an input file: list.txt.
[concat @ 0x55ca3dbe9ec0] Opening 'list.txt' for reading
[file @ 0x55ca3dbea900] Setting default whitelist 'file,crypto'
[NULL @ 0x55ca3dbf82a0] Opening './files/01.m4a' for reading
[mov,mp4,m4a,3gp,3g2,mj2 @ 0x55ca3dbf82a0] Format mov,mp4,m4a,3gp,3g2,mj2 probed with size=2048 and score=100
[mov,mp4,m4a,3gp,3g2,mj2 @ 0x55ca3dbf82a0] ISO: File Type Major Brand: M4A 
[mov,mp4,m4a,3gp,3g2,mj2 @ 0x55ca3dbf82a0] Unknown dref type 0x206c7275 size 12
[mov,mp4,m4a,3gp,3g2,mj2 @ 0x55ca3dbf82a0] Before avformat_find_stream_info() pos: 34905 bytes read:34905 seeks:0 nb_streams:1
[mov,mp4,m4a,3gp,3g2,mj2 @ 0x55ca3dbf82a0] After avformat_find_stream_info() pos: 40960 bytes read:34905 seeks:1 frames:0
[concat @ 0x55ca3dbe9ec0] Before avformat_find_stream_info() pos: 1100 bytes read:1100 seeks:0 nb_streams:1
[mov,mp4,m4a,3gp,3g2,mj2 @ 0x55ca3dbf82a0] stream 0, offset 0xa289: partial file
[concat @ 0x55ca3dbe9ec0] After avformat_find_stream_info() pos: 1100 bytes read:1100 seeks:0 frames:0
Input #0, concat, from 'list.txt':
  Duration: N/A, bitrate: 257 kb/s
    Stream #0:0(eng), 0, 1/44100: Audio: aac (mp4a / 0x6134706D), 44100 Hz, stereo, fltp, 257 kb/s
    Metadata:
      creation_time   : 2019-08-05T20:36:47.000000Z
Successfully opened the file.
Parsing a group of options: output url ./readyToUpload/mergedAudio.m4a.
Applying option c (codec name) with argument copy.
Successfully parsed a group of options.
Opening an output file: ./readyToUpload/mergedAudio.m4a.
[file @ 0x55ca3dbfc7a0] Setting default whitelist 'file,crypto'
Successfully opened the file.
[ipod @ 0x55ca3dc12140] track 0: codec frame size is not set
Output #0, ipod, to './readyToUpload/mergedAudio.m4a':
  Metadata:
    encoder         : Lavf57.83.100
    Stream #0:0(eng), 0, 1/44100: Audio: aac (mp4a / 0x6134706D), 44100 Hz, stereo, fltp, 257 kb/s
    Metadata:
      creation_time   : 2019-08-05T20:36:47.000000Z
Stream mapping:
  Stream #0:0 -> #0:0 (copy)
Press [q] to stop, [?] for help
cur_dts is invalid (this is harmless if it occurs once at the start per stream)
[mov,mp4,m4a,3gp,3g2,mj2 @ 0x55ca3dbf82a0] stream 0, offset 0xa515: partial file
list.txt: Invalid data found when processing input
No more output streams to write to, finishing.
size=       0kB time=00:00:00.00 bitrate=N/A speed=   0x    
video:0kB audio:0kB subtitle:0kB other streams:0kB global headers:0kB muxing overhead: unknown
Input file #0 (list.txt):
  Input stream #0:0 (audio): 0 packets read (0 bytes); 
  Total: 0 packets (0 bytes) demuxed
Output file #0 (./readyToUpload/mergedAudio.m4a):
  Output stream #0:0 (audio): 0 packets muxed (0 bytes); 
  Total: 0 packets (0 bytes) muxed
0 frames successfully decoded, 0 decoding errors
[AVIOContext @ 0x55ca3dbfc8e0] Statistics: 2 seeks, 3 writeouts
[AVIOContext @ 0x55ca3dbf3480] Statistics: 34905 bytes read, 1 seeks
[AVIOContext @ 0x55ca3dbf2c40] Statistics: 1100 bytes read, 0 seeks
